<svg id="visual" viewBox="0 0 900 600" width="900" height="600" xmlns="http://www.w3.org/2000/svg" xmlns:xlink="http://www.w3.org/1999/xlink" version="1.1"><rect width="900" height="600" fill="#1B191B"></rect><g><g transform="translate(104 263)"><path d="M29 -21.8C38.1 -11.7 46.4 0.4 44.9 11.5C43.4 22.7 32.1 32.9 18.6 39.9C5.2 46.8 -10.4 50.4 -22.1 45C-33.7 39.7 -41.4 25.5 -44.6 10.5C-47.7 -4.5 -46.3 -20.1 -38.1 -30C-29.9 -39.9 -15 -43.9 -2.5 -41.9C9.9 -39.9 19.9 -31.9 29 -21.8Z" fill="none" stroke="#715DF2" stroke-width="7"></path></g><g transform="translate(160 95)"><path d="M22.6 -18C29.5 -9.3 35.6 0.1 34.6 9.2C33.5 18.2 25.3 26.8 15.9 30.3C6.5 33.8 -4 32 -13 27.5C-22 23 -29.4 15.7 -31.5 7C-33.6 -1.6 -30.4 -11.7 -24.3 -20.2C-18.1 -28.8 -9.1 -35.8 -0.6 -35.3C7.8 -34.8 15.6 -26.8 22.6 -18Z" fill="none" stroke="#715DF2" stroke-width="7"></path></g><g transform="translate(432 83)"><path d="M19.6 -16.7C23 -11.4 21.8 -3.3 19.3 3.2C16.9 9.7 13.2 14.8 8.3 17.1C3.5 19.3 -2.6 18.7 -7.8 16.2C-13.1 13.7 -17.4 9.4 -19.8 3.3C-22.1 -2.7 -22.5 -10.5 -18.8 -15.8C-15.2 -21.2 -7.6 -24.3 0.3 -24.5C8.1 -24.7 16.2 -22.1 19.6 -16.7Z" fill="none" stroke="#715DF2" stroke-width="7"></path></g><g transform="translate(584 277)"><path d="M12.4 -9.3C15.6 -5.8 17.5 -0.7 16.4 3.5C15.3 7.8 11.1 11.1 6.5 13.1C1.9 15.2 -3.1 16 -7 14.2C-11 12.5 -13.9 8.2 -15.3 3.1C-16.8 -1.9 -16.8 -7.7 -14 -11.1C-11.3 -14.6 -5.6 -15.7 -0.5 -15.2C4.6 -14.8 9.1 -12.9 12.4 -9.3Z" fill="none" stroke="#715DF2" stroke-width="7"></path></g><g transform="translate(414 476)"><path d="M29.8 -25.1C36.5 -15.4 38.3 -3.2 36.5 9.7C34.6 22.6 29.3 36.1 18.6 42.9C7.9 49.7 -8 49.8 -18.3 42.9C-28.5 36.1 -33.1 22.3 -34.2 9.9C-35.3 -2.4 -33 -13.5 -26.7 -23C-20.5 -32.6 -10.2 -40.8 0.7 -41.3C11.6 -41.9 23.2 -34.8 29.8 -25.1Z" fill="none" stroke="#715DF2" stroke-width="7"></path></g><g transform="translate(223 418)"><path d="M28.4 -22.5C36.3 -12.8 41.8 -1 39.3 8.6C36.8 18.1 26.3 25.4 14.8 31.1C3.3 36.8 -9.2 40.9 -20 37.3C-30.7 33.7 -39.8 22.4 -41.1 11C-42.3 -0.3 -35.8 -11.9 -27.7 -21.6C-19.5 -31.4 -9.8 -39.4 0.3 -39.6C10.3 -39.8 20.5 -32.2 28.4 -22.5Z" fill="none" stroke="#715DF2" stroke-width="7"></path></g><g transform="translate(268 281)"><path d="M27.7 -21.1C35 -13 39.3 -1.5 37.6 9.5C35.8 20.5 27.9 31.1 17.5 36C7.1 40.9 -5.9 40 -16.2 34.7C-26.5 29.3 -34.1 19.4 -35.4 9.3C-36.8 -0.9 -32 -11.3 -25 -19.3C-18.1 -27.4 -9 -33.1 0.6 -33.6C10.2 -34.1 20.5 -29.3 27.7 -21.1Z" stroke="#715DF2" fill="none" stroke-width="7"></path></g><g transform="translate(392 267)"><path d="M17.1 -13.7C21.3 -8.3 23.3 -1.3 22.1 5.5C20.9 12.3 16.5 18.8 10.6 21.3C4.7 23.9 -2.7 22.5 -9.8 19.4C-16.9 16.4 -23.7 11.7 -24.8 5.9C-25.8 0.2 -21.3 -6.6 -16.2 -12.1C-11.1 -17.6 -5.6 -21.9 0.4 -22.3C6.4 -22.6 12.9 -19 17.1 -13.7Z" stroke="#715DF2" fill="none" stroke-width="7"></path></g><g transform="translate(747 254)"><path d="M14.9 -12.1C18.8 -7 21.1 -0.8 20.2 5.3C19.4 11.5 15.5 17.7 9.7 20.8C3.9 23.8 -3.7 23.7 -9.1 20.5C-14.4 17.2 -17.5 11 -18.4 4.9C-19.2 -1.2 -17.8 -7.1 -14.4 -12.1C-10.9 -17.1 -5.5 -21.2 0 -21.2C5.5 -21.2 11 -17.2 14.9 -12.1Z" stroke="#715DF2" fill="none" stroke-width="7"></path></g><g transform="translate(701 427)"><path d="M14.1 -11.2C16.9 -7.6 17 -1.9 15.4 2.9C13.8 7.6 10.5 11.3 6.7 12.7C2.8 14.1 -1.6 13.3 -5.2 11.3C-8.8 9.4 -11.7 6.3 -12.9 2.5C-14.2 -1.4 -14 -6.2 -11.5 -9.6C-9.1 -13.1 -4.6 -15.3 0.5 -15.7C5.6 -16.1 11.2 -14.8 14.1 -11.2Z" stroke="#715DF2" fill="none" stroke-width="7"></path></g><g transform="translate(830 406)"><path d="M26.7 -19.5C34.6 -11.5 40.8 -0.4 38.8 9C36.7 18.3 26.4 25.9 15.6 30.3C4.8 34.7 -6.5 35.8 -14.9 31.5C-23.4 27.3 -28.9 17.6 -31.5 7C-34.1 -3.6 -33.7 -15 -27.9 -22.6C-22.2 -30.1 -11.1 -33.7 -0.8 -33C9.4 -32.3 18.9 -27.5 26.7 -19.5Z" stroke="#715DF2" fill="none" stroke-width="7"></path></g><g transform="translate(523 397)"><path d="M28.2 -23.6C34.2 -15 35.1 -3.4 32.6 7.5C30.2 18.5 24.5 28.8 15 34.9C5.4 40.9 -8 42.7 -18.1 37.8C-28.2 32.9 -35 21.2 -38.4 8.2C-41.8 -4.8 -41.8 -19.1 -34.9 -27.9C-27.9 -36.7 -13.9 -40.1 -1.4 -38.9C11.1 -37.8 22.3 -32.2 28.2 -23.6Z" stroke="#715DF2" fill="none" stroke-width="7"></path></g><g transform="translate(567 86)"><path d="M20.1 -14.6C25.1 -9.9 27.3 -1.6 25.1 4.8C22.9 11.2 16.3 15.6 9.7 18C3 20.4 -3.6 20.8 -10.1 18.5C-16.6 16.3 -22.9 11.5 -25.2 4.8C-27.6 -1.9 -25.8 -10.5 -20.9 -15.3C-16 -20 -8 -20.9 -0.2 -20.7C7.6 -20.6 15.2 -19.4 20.1 -14.6Z" stroke="#715DF2" fill="none" stroke-width="7"></path></g><g transform="translate(576 525)"><path d="M13.8 -11.9C16.3 -7.8 15.9 -2.1 14.6 3.4C13.4 8.9 11.4 14.3 7.4 16.7C3.5 19.1 -2.6 18.4 -6.7 15.7C-10.8 13 -13 8.2 -13.4 3.8C-13.8 -0.6 -12.4 -4.7 -9.9 -8.8C-7.4 -12.9 -3.7 -17 1 -17.7C5.6 -18.5 11.2 -16 13.8 -11.9Z" stroke="#715DF2" fill="none" stroke-width="7"></path></g><g transform="translate(741 99)"><path d="M32.2 -26.1C39.1 -17.2 40 -3.9 37.4 9C34.9 21.9 28.8 34.6 18.8 39.5C8.9 44.4 -5 41.7 -14.8 35.2C-24.6 28.8 -30.4 18.5 -34.2 6.5C-38 -5.6 -39.8 -19.4 -33.8 -28.1C-27.7 -36.9 -13.9 -40.5 -0.6 -40.1C12.7 -39.6 25.4 -35 32.2 -26.1Z" stroke="#715DF2" fill="none" stroke-width="7"></path></g><g transform="translate(64 501)"><path d="M26.9 -21.8C32.6 -14.3 33.5 -3.2 30.7 6.3C28 15.8 21.6 23.7 13 28.4C4.3 33.2 -6.5 34.7 -13.9 30.5C-21.2 26.3 -25 16.5 -26.7 6.8C-28.3 -2.9 -27.8 -12.3 -23 -19.7C-18.2 -27 -9.1 -32.2 0.7 -32.8C10.6 -33.4 21.1 -29.4 26.9 -21.8Z" stroke="#715DF2" fill="none" stroke-width="7"></path></g><g transform="translate(827 527)"><path d="M16.9 -13.9C20.7 -8.8 21.7 -1.8 20.5 5.2C19.3 12.2 15.9 19.1 10.7 21.3C5.4 23.6 -1.8 21 -8.6 17.8C-15.5 14.5 -22.1 10.5 -24.4 4.4C-26.7 -1.7 -24.7 -9.9 -19.9 -15.3C-15.1 -20.7 -7.6 -23.3 -0.5 -22.9C6.6 -22.5 13.2 -19.1 16.9 -13.9Z" stroke="#715DF2" fill="none" stroke-width="7"></path></g><g transform="translate(293 151)"><path d="M31.6 -24.4C39.5 -15.2 43.7 -2.1 41.5 10.2C39.3 22.6 30.7 34.2 20 37.9C9.3 41.7 -3.4 37.6 -13 31.3C-22.7 25 -29.2 16.6 -33.1 5.8C-37 -5 -38.2 -18.3 -32.3 -27C-26.3 -35.8 -13.2 -40.1 -0.7 -39.6C11.8 -39 23.6 -33.6 31.6 -24.4Z" stroke="#715DF2" fill="none" stroke-width="7"></path></g><g transform="translate(256 537)"><path d="M14.7 -11.6C18.6 -6.9 21 -0.8 20.2 5.5C19.5 11.8 15.7 18.3 10.4 20.4C5.1 22.5 -1.7 20.2 -7.7 16.9C-13.6 13.7 -18.6 9.5 -20 4.3C-21.4 -0.9 -19.2 -7.2 -15.2 -12C-11.3 -16.8 -5.6 -20 -0.1 -19.9C5.4 -19.9 10.8 -16.4 14.7 -11.6Z" stroke="#715DF2" fill="none" stroke-width="7"></path></g></g></svg>