<svg id="visual" viewBox="0 0 900 600" width="900" height="600" xmlns="http://www.w3.org/2000/svg" xmlns:xlink="http://www.w3.org/1999/xlink" version="1.1"><rect x="0" y="0" width="900" height="600" fill="#1B191B"></rect><defs><linearGradient id="grad1_0" x1="33.3%" y1="0%" x2="100%" y2="100%"><stop offset="20%" stop-color="#fbae3c" stop-opacity="1"></stop><stop offset="80%" stop-color="#fbae3c" stop-opacity="1"></stop></linearGradient></defs><defs><linearGradient id="grad1_1" x1="33.3%" y1="0%" x2="100%" y2="100%"><stop offset="20%" stop-color="#fbae3c" stop-opacity="1"></stop><stop offset="80%" stop-color="#c76653" stop-opacity="1"></stop></linearGradient></defs><defs><linearGradient id="grad1_2" x1="33.3%" y1="0%" x2="100%" y2="100%"><stop offset="20%" stop-color="#6d3b4a" stop-opacity="1"></stop><stop offset="80%" stop-color="#c76653" stop-opacity="1"></stop></linearGradient></defs><defs><linearGradient id="grad1_3" x1="33.3%" y1="0%" x2="100%" y2="100%"><stop offset="20%" stop-color="#6d3b4a" stop-opacity="1"></stop><stop offset="80%" stop-color="#1b191b" stop-opacity="1"></stop></linearGradient></defs><defs><linearGradient id="grad2_0" x1="0%" y1="0%" x2="66.7%" y2="100%"><stop offset="20%" stop-color="#fbae3c" stop-opacity="1"></stop><stop offset="80%" stop-color="#fbae3c" stop-opacity="1"></stop></linearGradient></defs><defs><linearGradient id="grad2_1" x1="0%" y1="0%" x2="66.7%" y2="100%"><stop offset="20%" stop-color="#c76653" stop-opacity="1"></stop><stop offset="80%" stop-color="#fbae3c" stop-opacity="1"></stop></linearGradient></defs><defs><linearGradient id="grad2_2" x1="0%" y1="0%" x2="66.7%" y2="100%"><stop offset="20%" stop-color="#c76653" stop-opacity="1"></stop><stop offset="80%" stop-color="#6d3b4a" stop-opacity="1"></stop></linearGradient></defs><defs><linearGradient id="grad2_3" x1="0%" y1="0%" x2="66.7%" y2="100%"><stop offset="20%" stop-color="#1b191b" stop-opacity="1"></stop><stop offset="80%" stop-color="#6d3b4a" stop-opacity="1"></stop></linearGradient></defs><g transform="translate(900, 0)"><path d="M0 486.7C-59.5 473.2 -119 459.7 -182.2 439.8C-245.4 419.8 -312.3 393.4 -344.2 344.2C-376.1 295 -372.9 223 -390.8 161.9C-408.7 100.7 -447.7 50.4 -486.7 0L0 0Z" fill="#402b37"></path><path d="M0 365.1C-44.6 354.9 -89.2 344.8 -136.6 329.8C-184 314.9 -234.2 295 -258.1 258.1C-282 221.2 -279.7 167.3 -293.1 121.4C-306.5 75.5 -335.8 37.8 -365.1 0L0 0Z" fill="#9c4d53"></path><path d="M0 243.4C-29.7 236.6 -59.5 229.9 -91.1 219.9C-122.7 209.9 -156.2 196.7 -172.1 172.1C-188 147.5 -186.4 111.5 -195.4 80.9C-204.4 50.4 -223.9 25.2 -243.4 0L0 0Z" fill="#e7864a"></path><path d="M0 121.7C-14.9 118.3 -29.7 114.9 -45.5 109.9C-61.3 105 -78.1 98.3 -86 86C-94 73.7 -93.2 55.8 -97.7 40.5C-102.2 25.2 -111.9 12.6 -121.7 0L0 0Z" fill="#fbae3c"></path></g><g transform="translate(0, 600)"><path d="M0 -486.7C71.1 -487.7 142.2 -488.7 186.3 -449.7C230.3 -410.7 247.3 -331.8 281.4 -281.4C315.5 -231.1 366.7 -209.4 403.7 -167.2C440.8 -125.1 463.8 -62.5 486.7 0L0 0Z" fill="#402b37"></path><path d="M0 -365.1C53.3 -365.8 106.7 -366.5 139.7 -337.3C172.7 -308 185.5 -248.8 211.1 -211.1C236.6 -173.3 275 -157 302.8 -125.4C330.6 -93.8 347.8 -46.9 365.1 0L0 0Z" fill="#9c4d53"></path><path d="M0 -243.4C35.6 -243.9 71.1 -244.3 93.1 -224.8C115.2 -205.4 123.7 -165.9 140.7 -140.7C157.8 -115.5 183.3 -104.7 201.9 -83.6C220.4 -62.5 231.9 -31.3 243.4 0L0 0Z" fill="#e7864a"></path><path d="M0 -121.7C17.8 -121.9 35.6 -122.2 46.6 -112.4C57.6 -102.7 61.8 -82.9 70.4 -70.4C78.9 -57.8 91.7 -52.3 100.9 -41.8C110.2 -31.3 115.9 -15.6 121.7 0L0 0Z" fill="#fbae3c"></path></g></svg>