<svg id="visual" viewBox="0 0 900 600" width="900" height="600" xmlns="http://www.w3.org/2000/svg" xmlns:xlink="http://www.w3.org/1999/xlink" version="1.1"><rect x="0" y="0" width="900" height="600" fill="#7e5152"></rect><defs><linearGradient id="grad1_0" x1="33.3%" y1="0%" x2="100%" y2="100%"><stop offset="20%" stop-color="#0c080c" stop-opacity="1"></stop><stop offset="80%" stop-color="#0c080c" stop-opacity="1"></stop></linearGradient></defs><defs><linearGradient id="grad1_1" x1="33.3%" y1="0%" x2="100%" y2="100%"><stop offset="20%" stop-color="#0c080c" stop-opacity="1"></stop><stop offset="80%" stop-color="#1b151a" stop-opacity="1"></stop></linearGradient></defs><defs><linearGradient id="grad1_2" x1="33.3%" y1="0%" x2="100%" y2="100%"><stop offset="20%" stop-color="#2a1f25" stop-opacity="1"></stop><stop offset="80%" stop-color="#1b151a" stop-opacity="1"></stop></linearGradient></defs><defs><linearGradient id="grad1_3" x1="33.3%" y1="0%" x2="100%" y2="100%"><stop offset="20%" stop-color="#2a1f25" stop-opacity="1"></stop><stop offset="80%" stop-color="#392830" stop-opacity="1"></stop></linearGradient></defs><defs><linearGradient id="grad1_4" x1="33.3%" y1="0%" x2="100%" y2="100%"><stop offset="20%" stop-color="#4a313a" stop-opacity="1"></stop><stop offset="80%" stop-color="#392830" stop-opacity="1"></stop></linearGradient></defs><defs><linearGradient id="grad1_5" x1="33.3%" y1="0%" x2="100%" y2="100%"><stop offset="20%" stop-color="#4a313a" stop-opacity="1"></stop><stop offset="80%" stop-color="#5b3b43" stop-opacity="1"></stop></linearGradient></defs><defs><linearGradient id="grad1_6" x1="33.3%" y1="0%" x2="100%" y2="100%"><stop offset="20%" stop-color="#6c464b" stop-opacity="1"></stop><stop offset="80%" stop-color="#5b3b43" stop-opacity="1"></stop></linearGradient></defs><defs><linearGradient id="grad1_7" x1="33.3%" y1="0%" x2="100%" y2="100%"><stop offset="20%" stop-color="#6c464b" stop-opacity="1"></stop><stop offset="80%" stop-color="#7e5152" stop-opacity="1"></stop></linearGradient></defs><defs><linearGradient id="grad2_0" x1="0%" y1="0%" x2="66.7%" y2="100%"><stop offset="20%" stop-color="#0c080c" stop-opacity="1"></stop><stop offset="80%" stop-color="#0c080c" stop-opacity="1"></stop></linearGradient></defs><defs><linearGradient id="grad2_1" x1="0%" y1="0%" x2="66.7%" y2="100%"><stop offset="20%" stop-color="#1b151a" stop-opacity="1"></stop><stop offset="80%" stop-color="#0c080c" stop-opacity="1"></stop></linearGradient></defs><defs><linearGradient id="grad2_2" x1="0%" y1="0%" x2="66.7%" y2="100%"><stop offset="20%" stop-color="#1b151a" stop-opacity="1"></stop><stop offset="80%" stop-color="#2a1f25" stop-opacity="1"></stop></linearGradient></defs><defs><linearGradient id="grad2_3" x1="0%" y1="0%" x2="66.7%" y2="100%"><stop offset="20%" stop-color="#392830" stop-opacity="1"></stop><stop offset="80%" stop-color="#2a1f25" stop-opacity="1"></stop></linearGradient></defs><defs><linearGradient id="grad2_4" x1="0%" y1="0%" x2="66.7%" y2="100%"><stop offset="20%" stop-color="#392830" stop-opacity="1"></stop><stop offset="80%" stop-color="#4a313a" stop-opacity="1"></stop></linearGradient></defs><defs><linearGradient id="grad2_5" x1="0%" y1="0%" x2="66.7%" y2="100%"><stop offset="20%" stop-color="#5b3b43" stop-opacity="1"></stop><stop offset="80%" stop-color="#4a313a" stop-opacity="1"></stop></linearGradient></defs><defs><linearGradient id="grad2_6" x1="0%" y1="0%" x2="66.7%" y2="100%"><stop offset="20%" stop-color="#5b3b43" stop-opacity="1"></stop><stop offset="80%" stop-color="#6c464b" stop-opacity="1"></stop></linearGradient></defs><defs><linearGradient id="grad2_7" x1="0%" y1="0%" x2="66.7%" y2="100%"><stop offset="20%" stop-color="#7e5152" stop-opacity="1"></stop><stop offset="80%" stop-color="#6c464b" stop-opacity="1"></stop></linearGradient></defs><g transform="translate(900, 0)"><path d="M0 540.8C-33.1 471.3 -66.2 401.8 -129.8 399.4C-193.3 397.1 -287.3 461.8 -317.9 437.5C-348.5 413.3 -315.6 300.2 -333.3 242.2C-351 184.2 -419.2 181.3 -462.2 150.2C-505.2 119 -523 59.5 -540.8 0L0 0Z" fill="#754b4f"></path><path d="M0 473.2C-29 412.4 -58 351.6 -113.6 349.5C-169.2 347.4 -251.4 404 -278.2 382.8C-304.9 361.7 -276.2 262.6 -291.7 211.9C-307.1 161.2 -366.8 158.7 -404.4 131.4C-442.1 104.1 -457.6 52.1 -473.2 0L0 0Z" fill="#644147"></path><path d="M0 405.6C-24.8 353.5 -49.7 301.4 -97.3 299.6C-145 297.8 -215.5 346.3 -238.4 328.2C-261.3 310 -236.7 225.1 -250 181.6C-263.3 138.1 -314.4 136 -346.7 112.6C-378.9 89.3 -392.3 44.6 -405.6 0L0 0Z" fill="#52363e"></path><path d="M0 338C-20.7 294.6 -41.4 251.1 -81.1 249.7C-120.8 248.2 -179.6 288.6 -198.7 273.5C-217.8 258.3 -197.3 187.6 -208.3 151.4C-219.4 115.1 -262 113.3 -288.9 93.9C-315.8 74.4 -326.9 37.2 -338 0L0 0Z" fill="#412d35"></path><path d="M0 270.4C-16.6 235.7 -33.1 200.9 -64.9 199.7C-96.7 198.5 -143.7 230.9 -158.9 218.8C-174.2 206.7 -157.8 150.1 -166.7 121.1C-175.5 92.1 -209.6 90.7 -231.1 75.1C-252.6 59.5 -261.5 29.8 -270.4 0L0 0Z" fill="#31232b"></path><path d="M0 202.8C-12.4 176.8 -24.8 150.7 -48.7 149.8C-72.5 148.9 -107.7 173.2 -119.2 164.1C-130.7 155 -118.4 112.6 -125 90.8C-131.6 69.1 -157.2 68 -173.3 56.3C-189.5 44.6 -196.1 22.3 -202.8 0L0 0Z" fill="#221a20"></path><path d="M0 135.2C-8.3 117.8 -16.6 100.5 -32.4 99.9C-48.3 99.3 -71.8 115.4 -79.5 109.4C-87.1 103.3 -78.9 75 -83.3 60.5C-87.8 46 -104.8 45.3 -115.6 37.5C-126.3 29.8 -130.8 14.9 -135.2 0L0 0Z" fill="#151014"></path><path d="M0 67.6C-4.1 58.9 -8.3 50.2 -16.2 49.9C-24.2 49.6 -35.9 57.7 -39.7 54.7C-43.6 51.7 -39.5 37.5 -41.7 30.3C-43.9 23 -52.4 22.7 -57.8 18.8C-63.2 14.9 -65.4 7.4 -67.6 0L0 0Z" fill="#0c080c"></path></g><g transform="translate(0, 600)"><path d="M0 -540.8C42.4 -492.3 84.8 -443.8 139.7 -429.9C194.6 -416 261.9 -436.6 300.9 -414.2C340 -391.8 350.6 -326.3 386.7 -281C422.8 -235.7 484.4 -210.6 514.4 -167.1C544.3 -123.7 542.6 -61.8 540.8 0L0 0Z" fill="#754b4f"></path><path d="M0 -473.2C37.1 -430.8 74.2 -388.3 122.2 -376.1C170.2 -364 229.2 -382.1 263.3 -362.4C297.5 -342.8 306.8 -285.5 338.4 -245.8C370 -206.2 423.9 -184.3 450.1 -146.2C476.3 -108.2 474.7 -54.1 473.2 0L0 0Z" fill="#644147"></path><path d="M0 -405.6C31.8 -369.2 63.6 -332.8 104.8 -322.4C145.9 -312 196.5 -327.5 225.7 -310.7C255 -293.8 262.9 -244.7 290 -210.7C317.1 -176.7 363.3 -157.9 385.8 -125.3C408.2 -92.8 406.9 -46.4 405.6 0L0 0Z" fill="#52363e"></path><path d="M0 -338C26.5 -307.7 53 -277.4 87.3 -268.7C121.6 -260 163.7 -272.9 188.1 -258.9C212.5 -244.9 219.1 -203.9 241.7 -175.6C264.3 -147.3 302.8 -131.6 321.5 -104.5C340.2 -77.3 339.1 -38.6 338 0L0 0Z" fill="#412d35"></path><path d="M0 -270.4C21.2 -246.2 42.4 -221.9 69.8 -214.9C97.3 -208 131 -218.3 150.5 -207.1C170 -195.9 175.3 -163.1 193.4 -140.5C211.4 -117.8 242.2 -105.3 257.2 -83.6C272.1 -61.8 271.3 -30.9 270.4 0L0 0Z" fill="#31232b"></path><path d="M0 -202.8C15.9 -184.6 31.8 -166.4 52.4 -161.2C73 -156 98.2 -163.7 112.9 -155.3C127.5 -146.9 131.5 -122.3 145 -105.4C158.6 -88.4 181.7 -79 192.9 -62.7C204.1 -46.4 203.5 -23.2 202.8 0L0 0Z" fill="#221a20"></path><path d="M0 -135.2C10.6 -123.1 21.2 -110.9 34.9 -107.5C48.6 -104 65.5 -109.2 75.2 -103.6C85 -97.9 87.6 -81.6 96.7 -70.2C105.7 -58.9 121.1 -52.6 128.6 -41.8C136.1 -30.9 135.6 -15.5 135.2 0L0 0Z" fill="#151014"></path><path d="M0 -67.6C5.3 -61.5 10.6 -55.5 17.5 -53.7C24.3 -52 32.7 -54.6 37.6 -51.8C42.5 -49 43.8 -40.8 48.3 -35.1C52.9 -29.5 60.6 -26.3 64.3 -20.9C68 -15.5 67.8 -7.7 67.6 0L0 0Z" fill="#0c080c"></path></g></svg>