<svg id="visual" viewBox="0 0 900 600" width="900" height="600" xmlns="http://www.w3.org/2000/svg" xmlns:xlink="http://www.w3.org/1999/xlink" version="1.1"><rect x="0" y="0" width="900" height="600" fill="#1B191B"></rect><path d="M0 189L13.7 175C27.3 161 54.7 133 82 134.5C109.3 136 136.7 167 163.8 180.8C191 194.7 218 191.3 245.2 184.8C272.3 178.3 299.7 168.7 327 170.5C354.3 172.3 381.7 185.7 409 176.5C436.3 167.3 463.7 135.7 491 134.3C518.3 133 545.7 162 573 178C600.3 194 627.7 197 654.8 194.7C682 192.3 709 184.7 736.2 169.2C763.3 153.7 790.7 130.3 818 119.3C845.3 108.3 872.7 109.7 886.3 110.3L900 111L900 601L886.3 601C872.7 601 845.3 601 818 601C790.7 601 763.3 601 736.2 601C709 601 682 601 654.8 601C627.7 601 600.3 601 573 601C545.7 601 518.3 601 491 601C463.7 601 436.3 601 409 601C381.7 601 354.3 601 327 601C299.7 601 272.3 601 245.2 601C218 601 191 601 163.8 601C136.7 601 109.3 601 82 601C54.7 601 27.3 601 13.7 601L0 601Z" fill="#4885a4"></path><path d="M0 172L13.7 181.2C27.3 190.3 54.7 208.7 82 210.7C109.3 212.7 136.7 198.3 163.8 192.5C191 186.7 218 189.3 245.2 196.8C272.3 204.3 299.7 216.7 327 216.3C354.3 216 381.7 203 409 190.3C436.3 177.7 463.7 165.3 491 173.7C518.3 182 545.7 211 573 226.8C600.3 242.7 627.7 245.3 654.8 245.3C682 245.3 709 242.7 736.2 240.2C763.3 237.7 790.7 235.3 818 232C845.3 228.7 872.7 224.3 886.3 222.2L900 220L900 601L886.3 601C872.7 601 845.3 601 818 601C790.7 601 763.3 601 736.2 601C709 601 682 601 654.8 601C627.7 601 600.3 601 573 601C545.7 601 518.3 601 491 601C463.7 601 436.3 601 409 601C381.7 601 354.3 601 327 601C299.7 601 272.3 601 245.2 601C218 601 191 601 163.8 601C136.7 601 109.3 601 82 601C54.7 601 27.3 601 13.7 601L0 601Z" fill="#6e8cb5"></path><path d="M0 249L13.7 261.8C27.3 274.7 54.7 300.3 82 296.8C109.3 293.3 136.7 260.7 163.8 261C191 261.3 218 294.7 245.2 300.5C272.3 306.3 299.7 284.7 327 280.3C354.3 276 381.7 289 409 299C436.3 309 463.7 316 491 320.2C518.3 324.3 545.7 325.7 573 316.5C600.3 307.3 627.7 287.7 654.8 270.3C682 253 709 238 736.2 242.3C763.3 246.7 790.7 270.3 818 278.8C845.3 287.3 872.7 280.7 886.3 277.3L900 274L900 601L886.3 601C872.7 601 845.3 601 818 601C790.7 601 763.3 601 736.2 601C709 601 682 601 654.8 601C627.7 601 600.3 601 573 601C545.7 601 518.3 601 491 601C463.7 601 436.3 601 409 601C381.7 601 354.3 601 327 601C299.7 601 272.3 601 245.2 601C218 601 191 601 163.8 601C136.7 601 109.3 601 82 601C54.7 601 27.3 601 13.7 601L0 601Z" fill="#9393be"></path><path d="M0 303L13.7 313.8C27.3 324.7 54.7 346.3 82 347.3C109.3 348.3 136.7 328.7 163.8 329.2C191 329.7 218 350.3 245.2 356.2C272.3 362 299.7 353 327 348.3C354.3 343.7 381.7 343.3 409 346.8C436.3 350.3 463.7 357.7 491 364.8C518.3 372 545.7 379 573 371.3C600.3 363.7 627.7 341.3 654.8 326.2C682 311 709 303 736.2 315.3C763.3 327.7 790.7 360.3 818 359.8C845.3 359.3 872.7 325.7 886.3 308.8L900 292L900 601L886.3 601C872.7 601 845.3 601 818 601C790.7 601 763.3 601 736.2 601C709 601 682 601 654.8 601C627.7 601 600.3 601 573 601C545.7 601 518.3 601 491 601C463.7 601 436.3 601 409 601C381.7 601 354.3 601 327 601C299.7 601 272.3 601 245.2 601C218 601 191 601 163.8 601C136.7 601 109.3 601 82 601C54.7 601 27.3 601 13.7 601L0 601Z" fill="#b69ac1"></path><path d="M0 454L13.7 451.8C27.3 449.7 54.7 445.3 82 434.8C109.3 424.3 136.7 407.7 163.8 399.3C191 391 218 391 245.2 397.3C272.3 403.7 299.7 416.3 327 419.7C354.3 423 381.7 417 409 405.5C436.3 394 463.7 377 491 380.8C518.3 384.7 545.7 409.3 573 422.8C600.3 436.3 627.7 438.7 654.8 437.7C682 436.7 709 432.3 736.2 423.8C763.3 415.3 790.7 402.7 818 396.7C845.3 390.7 872.7 391.3 886.3 391.7L900 392L900 601L886.3 601C872.7 601 845.3 601 818 601C790.7 601 763.3 601 736.2 601C709 601 682 601 654.8 601C627.7 601 600.3 601 573 601C545.7 601 518.3 601 491 601C463.7 601 436.3 601 409 601C381.7 601 354.3 601 327 601C299.7 601 272.3 601 245.2 601C218 601 191 601 163.8 601C136.7 601 109.3 601 82 601C54.7 601 27.3 601 13.7 601L0 601Z" fill="#d3a3bf"></path><path d="M0 419L13.7 421.5C27.3 424 54.7 429 82 429.7C109.3 430.3 136.7 426.7 163.8 437.3C191 448 218 473 245.2 479.2C272.3 485.3 299.7 472.7 327 468.7C354.3 464.7 381.7 469.3 409 467C436.3 464.7 463.7 455.3 491 460.7C518.3 466 545.7 486 573 487.2C600.3 488.3 627.7 470.7 654.8 459.5C682 448.3 709 443.7 736.2 451.8C763.3 460 790.7 481 818 485.8C845.3 490.7 872.7 479.3 886.3 473.7L900 468L900 601L886.3 601C872.7 601 845.3 601 818 601C790.7 601 763.3 601 736.2 601C709 601 682 601 654.8 601C627.7 601 600.3 601 573 601C545.7 601 518.3 601 491 601C463.7 601 436.3 601 409 601C381.7 601 354.3 601 327 601C299.7 601 272.3 601 245.2 601C218 601 191 601 163.8 601C136.7 601 109.3 601 82 601C54.7 601 27.3 601 13.7 601L0 601Z" fill="#e8aeba"></path><path d="M0 541L13.7 538C27.3 535 54.7 529 82 524.5C109.3 520 136.7 517 163.8 516.3C191 515.7 218 517.3 245.2 524.8C272.3 532.3 299.7 545.7 327 547.5C354.3 549.3 381.7 539.7 409 530.3C436.3 521 463.7 512 491 509.2C518.3 506.3 545.7 509.7 573 515.5C600.3 521.3 627.7 529.7 654.8 531C682 532.3 709 526.7 736.2 524.8C763.3 523 790.7 525 818 526.7C845.3 528.3 872.7 529.7 886.3 530.3L900 531L900 601L886.3 601C872.7 601 845.3 601 818 601C790.7 601 763.3 601 736.2 601C709 601 682 601 654.8 601C627.7 601 600.3 601 573 601C545.7 601 518.3 601 491 601C463.7 601 436.3 601 409 601C381.7 601 354.3 601 327 601C299.7 601 272.3 601 245.2 601C218 601 191 601 163.8 601C136.7 601 109.3 601 82 601C54.7 601 27.3 601 13.7 601L0 601Z" fill="#f6bdb7"></path></svg>