<svg id="visual" viewBox="0 0 900 600" width="900" height="600" xmlns="http://www.w3.org/2000/svg" xmlns:xlink="http://www.w3.org/1999/xlink" version="1.1"><path d="M0 43L8.3 46C16.7 49 33.3 55 50 51C66.7 47 83.3 33 100 31C116.7 29 133.3 39 150 44C166.7 49 183.3 49 200 47C216.7 45 233.3 41 250 45C266.7 49 283.3 61 300 66C316.7 71 333.3 69 350 65C366.7 61 383.3 55 400 49C416.7 43 433.3 37 450 40C466.7 43 483.3 55 500 53C516.7 51 533.3 35 550 33C566.7 31 583.3 43 600 53C616.7 63 633.3 71 650 64C666.7 57 683.3 35 700 32C716.7 29 733.3 45 750 56C766.7 67 783.3 73 800 68C816.7 63 833.3 47 850 42C866.7 37 883.3 43 891.7 46L900 49L900 0L891.7 0C883.3 0 866.7 0 850 0C833.3 0 816.7 0 800 0C783.3 0 766.7 0 750 0C733.3 0 716.7 0 700 0C683.3 0 666.7 0 650 0C633.3 0 616.7 0 600 0C583.3 0 566.7 0 550 0C533.3 0 516.7 0 500 0C483.3 0 466.7 0 450 0C433.3 0 416.7 0 400 0C383.3 0 366.7 0 350 0C333.3 0 316.7 0 300 0C283.3 0 266.7 0 250 0C233.3 0 216.7 0 200 0C183.3 0 166.7 0 150 0C133.3 0 116.7 0 100 0C83.3 0 66.7 0 50 0C33.3 0 16.7 0 8.3 0L0 0Z" fill="#443797"></path><path d="M0 85L8.3 82C16.7 79 33.3 73 50 73C66.7 73 83.3 79 100 79C116.7 79 133.3 73 150 68C166.7 63 183.3 59 200 65C216.7 71 233.3 87 250 91C266.7 95 283.3 87 300 82C316.7 77 333.3 75 350 72C366.7 69 383.3 65 400 62C416.7 59 433.3 57 450 68C466.7 79 483.3 103 500 110C516.7 117 533.3 107 550 104C566.7 101 583.3 105 600 113C616.7 121 633.3 133 650 126C666.7 119 683.3 93 700 80C716.7 67 733.3 67 750 74C766.7 81 783.3 95 800 100C816.7 105 833.3 101 850 100C866.7 99 883.3 101 891.7 102L900 103L900 47L891.7 44C883.3 41 866.7 35 850 40C833.3 45 816.7 61 800 66C783.3 71 766.7 65 750 54C733.3 43 716.7 27 700 30C683.3 33 666.7 55 650 62C633.3 69 616.7 61 600 51C583.3 41 566.7 29 550 31C533.3 33 516.7 49 500 51C483.3 53 466.7 41 450 38C433.3 35 416.7 41 400 47C383.3 53 366.7 59 350 63C333.3 67 316.7 69 300 64C283.3 59 266.7 47 250 43C233.3 39 216.7 43 200 45C183.3 47 166.7 47 150 42C133.3 37 116.7 27 100 29C83.3 31 66.7 45 50 49C33.3 53 16.7 47 8.3 44L0 41Z" fill="#5a3b9b"></path><path d="M0 211L8.3 205C16.7 199 33.3 187 50 203C66.7 219 83.3 263 100 277C116.7 291 133.3 275 150 244C166.7 213 183.3 167 200 189C216.7 211 233.3 301 250 308C266.7 315 283.3 239 300 216C316.7 193 333.3 223 350 213C366.7 203 383.3 153 400 146C416.7 139 433.3 175 450 194C466.7 213 483.3 215 500 205C516.7 195 533.3 173 550 158C566.7 143 583.3 135 600 137C616.7 139 633.3 151 650 153C666.7 155 683.3 147 700 164C716.7 181 733.3 223 750 240C766.7 257 783.3 249 800 249C816.7 249 833.3 257 850 251C866.7 245 883.3 225 891.7 215L900 205L900 101L891.7 100C883.3 99 866.7 97 850 98C833.3 99 816.7 103 800 98C783.3 93 766.7 79 750 72C733.3 65 716.7 65 700 78C683.3 91 666.7 117 650 124C633.3 131 616.7 119 600 111C583.3 103 566.7 99 550 102C533.3 105 516.7 115 500 108C483.3 101 466.7 77 450 66C433.3 55 416.7 57 400 60C383.3 63 366.7 67 350 70C333.3 73 316.7 75 300 80C283.3 85 266.7 93 250 89C233.3 85 216.7 69 200 63C183.3 57 166.7 61 150 66C133.3 71 116.7 77 100 77C83.3 77 66.7 71 50 71C33.3 71 16.7 77 8.3 80L0 83Z" fill="#6d409f"></path><path d="M0 433L8.3 429C16.7 425 33.3 417 50 420C66.7 423 83.3 437 100 426C116.7 415 133.3 379 150 365C166.7 351 183.3 359 200 375C216.7 391 233.3 415 250 399C266.7 383 283.3 327 300 321C316.7 315 333.3 359 350 366C366.7 373 383.3 343 400 322C416.7 301 433.3 289 450 312C466.7 335 483.3 393 500 399C516.7 405 533.3 359 550 342C566.7 325 583.3 337 600 339C616.7 341 633.3 333 650 320C666.7 307 683.3 289 700 284C716.7 279 733.3 287 750 293C766.7 299 783.3 303 800 331C816.7 359 833.3 411 850 416C866.7 421 883.3 379 891.7 358L900 337L900 203L891.7 213C883.3 223 866.7 243 850 249C833.3 255 816.7 247 800 247C783.3 247 766.7 255 750 238C733.3 221 716.7 179 700 162C683.3 145 666.7 153 650 151C633.3 149 616.7 137 600 135C583.3 133 566.7 141 550 156C533.3 171 516.7 193 500 203C483.3 213 466.7 211 450 192C433.3 173 416.7 137 400 144C383.3 151 366.7 201 350 211C333.3 221 316.7 191 300 214C283.3 237 266.7 313 250 306C233.3 299 216.7 209 200 187C183.3 165 166.7 211 150 242C133.3 273 116.7 289 100 275C83.3 261 66.7 217 50 201C33.3 185 16.7 197 8.3 203L0 209Z" fill="#7f45a2"></path><path d="M0 475L8.3 470C16.7 465 33.3 455 50 455C66.7 455 83.3 465 100 459C116.7 453 133.3 431 150 428C166.7 425 183.3 441 200 456C216.7 471 233.3 485 250 469C266.7 453 283.3 407 300 400C316.7 393 333.3 425 350 441C366.7 457 383.3 457 400 454C416.7 451 433.3 445 450 446C466.7 447 483.3 455 500 458C516.7 461 533.3 459 550 445C566.7 431 583.3 405 600 404C616.7 403 633.3 427 650 434C666.7 441 683.3 431 700 420C716.7 409 733.3 397 750 394C766.7 391 783.3 397 800 417C816.7 437 833.3 471 850 474C866.7 477 883.3 449 891.7 435L900 421L900 335L891.7 356C883.3 377 866.7 419 850 414C833.3 409 816.7 357 800 329C783.3 301 766.7 297 750 291C733.3 285 716.7 277 700 282C683.3 287 666.7 305 650 318C633.3 331 616.7 339 600 337C583.3 335 566.7 323 550 340C533.3 357 516.7 403 500 397C483.3 391 466.7 333 450 310C433.3 287 416.7 299 400 320C383.3 341 366.7 371 350 364C333.3 357 316.7 313 300 319C283.3 325 266.7 381 250 397C233.3 413 216.7 389 200 373C183.3 357 166.7 349 150 363C133.3 377 116.7 413 100 424C83.3 435 66.7 421 50 418C33.3 415 16.7 423 8.3 427L0 431Z" fill="#904ba5"></path><path d="M0 535L8.3 530C16.7 525 33.3 515 50 510C66.7 505 83.3 505 100 507C116.7 509 133.3 513 150 520C166.7 527 183.3 537 200 536C216.7 535 233.3 523 250 508C266.7 493 283.3 475 300 477C316.7 479 333.3 501 350 507C366.7 513 383.3 503 400 503C416.7 503 433.3 513 450 510C466.7 507 483.3 491 500 489C516.7 487 533.3 499 550 496C566.7 493 583.3 475 600 474C616.7 473 633.3 489 650 489C666.7 489 683.3 473 700 462C716.7 451 733.3 445 750 446C766.7 447 783.3 455 800 472C816.7 489 833.3 515 850 525C866.7 535 883.3 529 891.7 526L900 523L900 419L891.7 433C883.3 447 866.7 475 850 472C833.3 469 816.7 435 800 415C783.3 395 766.7 389 750 392C733.3 395 716.7 407 700 418C683.3 429 666.7 439 650 432C633.3 425 616.7 401 600 402C583.3 403 566.7 429 550 443C533.3 457 516.7 459 500 456C483.3 453 466.7 445 450 444C433.3 443 416.7 449 400 452C383.3 455 366.7 455 350 439C333.3 423 316.7 391 300 398C283.3 405 266.7 451 250 467C233.3 483 216.7 469 200 454C183.3 439 166.7 423 150 426C133.3 429 116.7 451 100 457C83.3 463 66.7 453 50 453C33.3 453 16.7 463 8.3 468L0 473Z" fill="#a051a8"></path><path d="M0 547L8.3 543C16.7 539 33.3 531 50 529C66.7 527 83.3 531 100 532C116.7 533 133.3 531 150 536C166.7 541 183.3 553 200 560C216.7 567 233.3 569 250 561C266.7 553 283.3 535 300 528C316.7 521 333.3 525 350 530C366.7 535 383.3 541 400 545C416.7 549 433.3 551 450 542C466.7 533 483.3 513 500 511C516.7 509 533.3 525 550 526C566.7 527 583.3 513 600 515C616.7 517 633.3 535 650 532C666.7 529 683.3 505 700 497C716.7 489 733.3 497 750 503C766.7 509 783.3 513 800 524C816.7 535 833.3 553 850 556C866.7 559 883.3 547 891.7 541L900 535L900 521L891.7 524C883.3 527 866.7 533 850 523C833.3 513 816.7 487 800 470C783.3 453 766.7 445 750 444C733.3 443 716.7 449 700 460C683.3 471 666.7 487 650 487C633.3 487 616.7 471 600 472C583.3 473 566.7 491 550 494C533.3 497 516.7 485 500 487C483.3 489 466.7 505 450 508C433.3 511 416.7 501 400 501C383.3 501 366.7 511 350 505C333.3 499 316.7 477 300 475C283.3 473 266.7 491 250 506C233.3 521 216.7 533 200 534C183.3 535 166.7 525 150 518C133.3 511 116.7 507 100 505C83.3 503 66.7 503 50 508C33.3 513 16.7 523 8.3 528L0 533Z" fill="#af57ab"></path><path d="M0 601L8.3 601C16.7 601 33.3 601 50 601C66.7 601 83.3 601 100 601C116.7 601 133.3 601 150 601C166.7 601 183.3 601 200 601C216.7 601 233.3 601 250 601C266.7 601 283.3 601 300 601C316.7 601 333.3 601 350 601C366.7 601 383.3 601 400 601C416.7 601 433.3 601 450 601C466.7 601 483.3 601 500 601C516.7 601 533.3 601 550 601C566.7 601 583.3 601 600 601C616.7 601 633.3 601 650 601C666.7 601 683.3 601 700 601C716.7 601 733.3 601 750 601C766.7 601 783.3 601 800 601C816.7 601 833.3 601 850 601C866.7 601 883.3 601 891.7 601L900 601L900 533L891.7 539C883.3 545 866.7 557 850 554C833.3 551 816.7 533 800 522C783.3 511 766.7 507 750 501C733.3 495 716.7 487 700 495C683.3 503 666.7 527 650 530C633.3 533 616.7 515 600 513C583.3 511 566.7 525 550 524C533.3 523 516.7 507 500 509C483.3 511 466.7 531 450 540C433.3 549 416.7 547 400 543C383.3 539 366.7 533 350 528C333.3 523 316.7 519 300 526C283.3 533 266.7 551 250 559C233.3 567 216.7 565 200 558C183.3 551 166.7 539 150 534C133.3 529 116.7 531 100 530C83.3 529 66.7 525 50 527C33.3 529 16.7 537 8.3 541L0 545Z" fill="#be5ead"></path></svg>