<svg id="visual" viewBox="0 0 900 600" width="900" height="600" xmlns="http://www.w3.org/2000/svg" xmlns:xlink="http://www.w3.org/1999/xlink" version="1.1"><rect x="0" y="0" width="900" height="600" fill="#80A2B4"></rect><defs><linearGradient id="grad1_0" x1="33.3%" y1="0%" x2="100%" y2="100%"><stop offset="20%" stop-color="#a56ca6" stop-opacity="1"></stop><stop offset="80%" stop-color="#a56ca6" stop-opacity="1"></stop></linearGradient></defs><defs><linearGradient id="grad1_1" x1="33.3%" y1="0%" x2="100%" y2="100%"><stop offset="20%" stop-color="#a56ca6" stop-opacity="1"></stop><stop offset="80%" stop-color="#9977b1" stop-opacity="1"></stop></linearGradient></defs><defs><linearGradient id="grad1_2" x1="33.3%" y1="0%" x2="100%" y2="100%"><stop offset="20%" stop-color="#8d80b8" stop-opacity="1"></stop><stop offset="80%" stop-color="#9977b1" stop-opacity="1"></stop></linearGradient></defs><defs><linearGradient id="grad1_3" x1="33.3%" y1="0%" x2="100%" y2="100%"><stop offset="20%" stop-color="#8d80b8" stop-opacity="1"></stop><stop offset="80%" stop-color="#8389bc" stop-opacity="1"></stop></linearGradient></defs><defs><linearGradient id="grad1_4" x1="33.3%" y1="0%" x2="100%" y2="100%"><stop offset="20%" stop-color="#7b91bc" stop-opacity="1"></stop><stop offset="80%" stop-color="#8389bc" stop-opacity="1"></stop></linearGradient></defs><defs><linearGradient id="grad1_5" x1="33.3%" y1="0%" x2="100%" y2="100%"><stop offset="20%" stop-color="#7b91bc" stop-opacity="1"></stop><stop offset="80%" stop-color="#7997bb" stop-opacity="1"></stop></linearGradient></defs><defs><linearGradient id="grad1_6" x1="33.3%" y1="0%" x2="100%" y2="100%"><stop offset="20%" stop-color="#7a9db8" stop-opacity="1"></stop><stop offset="80%" stop-color="#7997bb" stop-opacity="1"></stop></linearGradient></defs><defs><linearGradient id="grad1_7" x1="33.3%" y1="0%" x2="100%" y2="100%"><stop offset="20%" stop-color="#7a9db8" stop-opacity="1"></stop><stop offset="80%" stop-color="#80a2b4" stop-opacity="1"></stop></linearGradient></defs><defs><linearGradient id="grad2_0" x1="0%" y1="0%" x2="66.7%" y2="100%"><stop offset="20%" stop-color="#a56ca6" stop-opacity="1"></stop><stop offset="80%" stop-color="#a56ca6" stop-opacity="1"></stop></linearGradient></defs><defs><linearGradient id="grad2_1" x1="0%" y1="0%" x2="66.7%" y2="100%"><stop offset="20%" stop-color="#9977b1" stop-opacity="1"></stop><stop offset="80%" stop-color="#a56ca6" stop-opacity="1"></stop></linearGradient></defs><defs><linearGradient id="grad2_2" x1="0%" y1="0%" x2="66.7%" y2="100%"><stop offset="20%" stop-color="#9977b1" stop-opacity="1"></stop><stop offset="80%" stop-color="#8d80b8" stop-opacity="1"></stop></linearGradient></defs><defs><linearGradient id="grad2_3" x1="0%" y1="0%" x2="66.7%" y2="100%"><stop offset="20%" stop-color="#8389bc" stop-opacity="1"></stop><stop offset="80%" stop-color="#8d80b8" stop-opacity="1"></stop></linearGradient></defs><defs><linearGradient id="grad2_4" x1="0%" y1="0%" x2="66.7%" y2="100%"><stop offset="20%" stop-color="#8389bc" stop-opacity="1"></stop><stop offset="80%" stop-color="#7b91bc" stop-opacity="1"></stop></linearGradient></defs><defs><linearGradient id="grad2_5" x1="0%" y1="0%" x2="66.7%" y2="100%"><stop offset="20%" stop-color="#7997bb" stop-opacity="1"></stop><stop offset="80%" stop-color="#7b91bc" stop-opacity="1"></stop></linearGradient></defs><defs><linearGradient id="grad2_6" x1="0%" y1="0%" x2="66.7%" y2="100%"><stop offset="20%" stop-color="#7997bb" stop-opacity="1"></stop><stop offset="80%" stop-color="#7a9db8" stop-opacity="1"></stop></linearGradient></defs><defs><linearGradient id="grad2_7" x1="0%" y1="0%" x2="66.7%" y2="100%"><stop offset="20%" stop-color="#80a2b4" stop-opacity="1"></stop><stop offset="80%" stop-color="#7a9db8" stop-opacity="1"></stop></linearGradient></defs><g transform="translate(900, 0)"><path d="M0 540.8C-59.9 540.9 -119.8 540.9 -167.1 514.4C-214.5 487.8 -249.3 434.8 -285.7 393.2C-322 351.6 -359.8 321.5 -390.8 283.9C-421.7 246.3 -445.9 201.2 -469.8 152.7C-493.7 104.1 -517.3 52 -540.8 0L0 0Z" fill="#7da0b6"></path><path d="M0 473.2C-52.4 473.3 -104.8 473.3 -146.2 450.1C-187.7 426.9 -218.2 380.4 -250 344C-281.7 307.6 -314.8 281.3 -341.9 248.4C-369 215.5 -390.2 176.1 -411.1 133.6C-432 91.1 -452.6 45.5 -473.2 0L0 0Z" fill="#799ab9"></path><path d="M0 405.6C-44.9 405.6 -89.8 405.7 -125.3 385.8C-160.9 365.9 -187 326.1 -214.2 294.9C-241.5 263.7 -269.8 241.1 -293.1 212.9C-316.3 184.7 -334.5 150.9 -352.4 114.5C-370.3 78.1 -388 39 -405.6 0L0 0Z" fill="#7994bc"></path><path d="M0 338C-37.4 338 -74.9 338.1 -104.5 321.5C-134.1 304.9 -155.8 271.7 -178.5 245.7C-201.2 219.7 -224.9 200.9 -244.2 177.4C-263.6 153.9 -278.7 125.8 -293.6 95.4C-308.6 65.1 -323.3 32.5 -338 0L0 0Z" fill="#7f8dbc"></path><path d="M0 270.4C-29.9 270.4 -59.9 270.4 -83.6 257.2C-107.2 243.9 -124.7 217.4 -142.8 196.6C-161 175.8 -179.9 160.7 -195.4 142C-210.9 123.2 -223 100.6 -234.9 76.3C-246.9 52 -258.6 26 -270.4 0L0 0Z" fill="#8885ba"></path><path d="M0 202.8C-22.5 202.8 -44.9 202.8 -62.7 192.9C-80.4 182.9 -93.5 163 -107.1 147.4C-120.7 131.8 -134.9 120.6 -146.5 106.5C-158.2 92.4 -167.2 75.5 -176.2 57.2C-185.1 39 -194 19.5 -202.8 0L0 0Z" fill="#937bb5"></path><path d="M0 135.2C-15 135.2 -29.9 135.2 -41.8 128.6C-53.6 122 -62.3 108.7 -71.4 98.3C-80.5 87.9 -89.9 80.4 -97.7 71C-105.4 61.6 -111.5 50.3 -117.5 38.2C-123.4 26 -129.3 13 -135.2 0L0 0Z" fill="#9f71ac"></path><path d="M0 67.6C-7.5 67.6 -15 67.6 -20.9 64.3C-26.8 61 -31.2 54.3 -35.7 49.1C-40.2 43.9 -45 40.2 -48.8 35.5C-52.7 30.8 -55.7 25.2 -58.7 19.1C-61.7 13 -64.7 6.5 -67.6 0L0 0Z" fill="#a56ca6"></path></g><g transform="translate(0, 600)"><path d="M0 -540.8C54.3 -517.9 108.6 -495.1 150.2 -462.2C191.7 -429.4 220.5 -386.6 261 -359.2C301.5 -331.8 353.7 -319.9 401.3 -291.5C448.9 -263.2 491.9 -218.5 514.4 -167.1C536.9 -115.8 538.8 -57.9 540.8 0L0 0Z" fill="#7da0b6"></path><path d="M0 -473.2C47.5 -453.2 95.1 -433.2 131.4 -404.4C167.8 -375.7 192.9 -338.3 228.4 -314.3C263.8 -290.4 309.5 -279.9 351.1 -255.1C392.8 -230.3 430.4 -191.1 450.1 -146.2C469.7 -101.3 471.5 -50.7 473.2 0L0 0Z" fill="#799ab9"></path><path d="M0 -405.6C40.7 -388.5 81.5 -371.3 112.6 -346.7C143.8 -322 165.4 -289.9 195.7 -269.4C226.1 -248.9 265.3 -239.9 301 -218.7C336.7 -197.4 368.9 -163.8 385.8 -125.3C402.6 -86.9 404.1 -43.4 405.6 0L0 0Z" fill="#7994bc"></path><path d="M0 -338C33.9 -323.7 67.9 -309.4 93.9 -288.9C119.8 -268.4 137.8 -241.6 163.1 -224.5C188.4 -207.4 221 -199.9 250.8 -182.2C280.5 -164.5 307.4 -136.5 321.5 -104.5C335.5 -72.4 336.8 -36.2 338 0L0 0Z" fill="#7f8dbc"></path><path d="M0 -270.4C27.2 -259 54.3 -247.5 75.1 -231.1C95.9 -214.7 110.2 -193.3 130.5 -179.6C150.7 -165.9 176.8 -159.9 200.6 -145.8C224.4 -131.6 245.9 -109.2 257.2 -83.6C268.4 -57.9 269.4 -29 270.4 0L0 0Z" fill="#8885ba"></path><path d="M0 -202.8C20.4 -194.2 40.7 -185.6 56.3 -173.3C71.9 -161 82.7 -145 97.9 -134.7C113 -124.4 132.6 -120 150.5 -109.3C168.3 -98.7 184.5 -81.9 192.9 -62.7C201.3 -43.4 202.1 -21.7 202.8 0L0 0Z" fill="#937bb5"></path><path d="M0 -135.2C13.6 -129.5 27.2 -123.8 37.5 -115.6C47.9 -107.3 55.1 -96.6 65.2 -89.8C75.4 -83 88.4 -80 100.3 -72.9C112.2 -65.8 123 -54.6 128.6 -41.8C134.2 -29 134.7 -14.5 135.2 0L0 0Z" fill="#9f71ac"></path><path d="M0 -67.6C6.8 -64.7 13.6 -61.9 18.8 -57.8C24 -53.7 27.6 -48.3 32.6 -44.9C37.7 -41.5 44.2 -40 50.2 -36.4C56.1 -32.9 61.5 -27.3 64.3 -20.9C67.1 -14.5 67.4 -7.2 67.6 0L0 0Z" fill="#a56ca6"></path></g></svg>