<svg id="visual" viewBox="0 0 900 600" width="900" height="600" xmlns="http://www.w3.org/2000/svg" xmlns:xlink="http://www.w3.org/1999/xlink" version="1.1"><rect x="0" y="0" width="900" height="600" fill="#443797"></rect><defs><linearGradient id="grad1_0" x1="33.3%" y1="100%" x2="100%" y2="0%"><stop offset="20%" stop-color="#e68fd5" stop-opacity="1"></stop><stop offset="80%" stop-color="#e68fd5" stop-opacity="1"></stop></linearGradient></defs><defs><linearGradient id="grad1_1" x1="33.3%" y1="100%" x2="100%" y2="0%"><stop offset="20%" stop-color="#e68fd5" stop-opacity="1"></stop><stop offset="80%" stop-color="#9c5eb6" stop-opacity="1"></stop></linearGradient></defs><defs><linearGradient id="grad1_2" x1="33.3%" y1="100%" x2="100%" y2="0%"><stop offset="20%" stop-color="#443797" stop-opacity="1"></stop><stop offset="80%" stop-color="#9c5eb6" stop-opacity="1"></stop></linearGradient></defs><defs><linearGradient id="grad2_0" x1="0%" y1="100%" x2="66.7%" y2="0%"><stop offset="20%" stop-color="#e68fd5" stop-opacity="1"></stop><stop offset="80%" stop-color="#e68fd5" stop-opacity="1"></stop></linearGradient></defs><defs><linearGradient id="grad2_1" x1="0%" y1="100%" x2="66.7%" y2="0%"><stop offset="20%" stop-color="#9c5eb6" stop-opacity="1"></stop><stop offset="80%" stop-color="#e68fd5" stop-opacity="1"></stop></linearGradient></defs><defs><linearGradient id="grad2_2" x1="0%" y1="100%" x2="66.7%" y2="0%"><stop offset="20%" stop-color="#9c5eb6" stop-opacity="1"></stop><stop offset="80%" stop-color="#443797" stop-opacity="1"></stop></linearGradient></defs><g transform="translate(900, 600)"><path d="M-432.7 0C-432.6 -33.2 -432.6 -66.4 -421.8 -96.3C-411 -126.2 -389.5 -152.8 -367.6 -177C-345.7 -201.3 -323.6 -223.2 -297.1 -236.9C-270.6 -250.7 -239.9 -256.3 -216.4 -271.3C-192.8 -286.3 -176.5 -310.8 -154.5 -320.7C-132.5 -330.7 -104.8 -326 -78.1 -342.2C-51.4 -358.4 -25.7 -395.5 0 -432.7L0 0Z" fill="#7349a7"></path><path d="M-288.4 0C-288.4 -22.1 -288.4 -44.3 -281.2 -64.2C-274 -84.1 -259.6 -101.8 -245.1 -118C-230.5 -134.2 -215.7 -148.8 -198.1 -158C-180.4 -167.1 -159.9 -170.8 -144.2 -180.9C-128.5 -190.9 -117.6 -207.2 -103 -213.8C-88.3 -220.4 -69.9 -217.3 -52.1 -228.1C-34.3 -238.9 -17.1 -263.7 0 -288.4L0 0Z" fill="#c276c5"></path><path d="M-144.2 0C-144.2 -11.1 -144.2 -22.1 -140.6 -32.1C-137 -42.1 -129.8 -50.9 -122.5 -59C-115.2 -67.1 -107.9 -74.4 -99 -79C-90.2 -83.6 -80 -85.4 -72.1 -90.4C-64.3 -95.4 -58.8 -103.6 -51.5 -106.9C-44.2 -110.2 -34.9 -108.7 -26 -114.1C-17.1 -119.5 -8.6 -131.8 0 -144.2L0 0Z" fill="#e68fd5"></path></g><g transform="translate(0, 0)"><path d="M432.7 0C436.7 35.2 440.8 70.3 420.2 95.9C399.6 121.5 354.2 137.4 329.8 158.8C305.3 180.2 301.7 206.9 291.6 232.6C281.6 258.2 265.1 282.7 248.1 311.2C231.2 339.6 213.6 372.1 187.7 389.8C161.8 407.6 127.5 410.6 94.8 415.3C62.1 420 31.1 426.3 0 432.7L0 0Z" fill="#7349a7"></path><path d="M288.4 0C291.2 23.4 293.9 46.9 280.1 63.9C266.4 81 236.2 91.6 219.8 105.9C203.5 120.1 201.1 138 194.4 155C187.7 172.1 176.8 188.5 165.4 207.4C154.1 226.4 142.4 248 125.2 259.9C107.9 271.7 85 273.8 63.2 276.9C41.4 280 20.7 284.2 0 288.4L0 0Z" fill="#c276c5"></path><path d="M144.2 0C145.6 11.7 146.9 23.4 140.1 32C133.2 40.5 118.1 45.8 109.9 52.9C101.8 60.1 100.6 69 97.2 77.5C93.9 86.1 88.4 94.2 82.7 103.7C77.1 113.2 71.2 124 62.6 129.9C53.9 135.9 42.5 136.9 31.6 138.4C20.7 140 10.4 142.1 0 144.2L0 0Z" fill="#e68fd5"></path></g></svg>