<svg id="visual" viewBox="0 0 900 600" width="900" height="600" xmlns="http://www.w3.org/2000/svg" xmlns:xlink="http://www.w3.org/1999/xlink" version="1.1"><rect x="0" y="0" width="900" height="600" fill="#161515"></rect><path d="M0 80L53 80L53 171L106 171L106 124L159 124L159 52L212 52L212 117L265 117L265 171L318 171L318 87L371 87L371 163L424 163L424 80L476 80L476 60L529 60L529 90L582 90L582 80L635 80L635 52L688 52L688 57L741 57L741 140L794 140L794 122L847 122L847 117L900 117L900 85L900 601L900 601L847 601L847 601L794 601L794 601L741 601L741 601L688 601L688 601L635 601L635 601L582 601L582 601L529 601L529 601L476 601L476 601L424 601L424 601L371 601L371 601L318 601L318 601L265 601L265 601L212 601L212 601L159 601L159 601L106 601L106 601L53 601L53 601L0 601Z" fill="#d7759e"></path><path d="M0 193L53 193L53 109L106 109L106 91L159 91L159 97L212 97L212 198L265 198L265 169L318 169L318 189L371 189L371 215L424 215L424 193L476 193L476 152L529 152L529 167L582 167L582 142L635 142L635 167L688 167L688 167L741 167L741 209L794 209L794 212L847 212L847 122L900 122L900 124L900 601L900 601L847 601L847 601L794 601L794 601L741 601L741 601L688 601L688 601L635 601L635 601L582 601L582 601L529 601L529 601L476 601L476 601L424 601L424 601L371 601L371 601L318 601L318 601L265 601L265 601L212 601L212 601L159 601L159 601L106 601L106 601L53 601L53 601L0 601Z" fill="#cb709f"></path><path d="M0 136L53 136L53 217L106 217L106 207L159 207L159 178L212 178L212 228L265 228L265 147L318 147L318 224L371 224L371 162L424 162L424 191L476 191L476 206L529 206L529 201L582 201L582 207L635 207L635 198L688 198L688 176L741 176L741 210L794 210L794 146L847 146L847 219L900 219L900 184L900 601L900 601L847 601L847 601L794 601L794 601L741 601L741 601L688 601L688 601L635 601L635 601L582 601L582 601L529 601L529 601L476 601L476 601L424 601L424 601L371 601L371 601L318 601L318 601L265 601L265 601L212 601L212 601L159 601L159 601L106 601L106 601L53 601L53 601L0 601Z" fill="#be6c9f"></path><path d="M0 236L53 236L53 201L106 201L106 198L159 198L159 198L212 198L212 306L265 306L265 307L318 307L318 243L371 243L371 275L424 275L424 279L476 279L476 270L529 270L529 261L582 261L582 264L635 264L635 208L688 208L688 291L741 291L741 237L794 237L794 230L847 230L847 215L900 215L900 302L900 601L900 601L847 601L847 601L794 601L794 601L741 601L741 601L688 601L688 601L635 601L635 601L582 601L582 601L529 601L529 601L476 601L476 601L424 601L424 601L371 601L371 601L318 601L318 601L265 601L265 601L212 601L212 601L159 601L159 601L106 601L106 601L53 601L53 601L0 601Z" fill="#b0679f"></path><path d="M0 245L53 245L53 307L106 307L106 282L159 282L159 290L212 290L212 334L265 334L265 253L318 253L318 310L371 310L371 249L424 249L424 251L476 251L476 326L529 326L529 305L582 305L582 275L635 275L635 307L688 307L688 326L741 326L741 294L794 294L794 300L847 300L847 326L900 326L900 308L900 601L900 601L847 601L847 601L794 601L794 601L741 601L741 601L688 601L688 601L635 601L635 601L582 601L582 601L529 601L529 601L476 601L476 601L424 601L424 601L371 601L371 601L318 601L318 601L265 601L265 601L212 601L212 601L159 601L159 601L106 601L106 601L53 601L53 601L0 601Z" fill="#a2649f"></path><path d="M0 321L53 321L53 316L106 316L106 319L159 319L159 318L212 318L212 324L265 324L265 320L318 320L318 397L371 397L371 312L424 312L424 370L476 370L476 370L529 370L529 364L582 364L582 384L635 384L635 369L688 369L688 313L741 313L741 312L794 312L794 367L847 367L847 303L900 303L900 346L900 601L900 601L847 601L847 601L794 601L794 601L741 601L741 601L688 601L688 601L635 601L635 601L582 601L582 601L529 601L529 601L476 601L476 601L424 601L424 601L371 601L371 601L318 601L318 601L265 601L265 601L212 601L212 601L159 601L159 601L106 601L106 601L53 601L53 601L0 601Z" fill="#94609d"></path><path d="M0 349L53 349L53 412L106 412L106 378L159 378L159 427L212 427L212 394L265 394L265 441L318 441L318 397L371 397L371 369L424 369L424 355L476 355L476 393L529 393L529 437L582 437L582 426L635 426L635 442L688 442L688 416L741 416L741 352L794 352L794 425L847 425L847 408L900 408L900 382L900 601L900 601L847 601L847 601L794 601L794 601L741 601L741 601L688 601L688 601L635 601L635 601L582 601L582 601L529 601L529 601L476 601L476 601L424 601L424 601L371 601L371 601L318 601L318 601L265 601L265 601L212 601L212 601L159 601L159 601L106 601L106 601L53 601L53 601L0 601Z" fill="#855d9b"></path><path d="M0 433L53 433L53 462L106 462L106 411L159 411L159 401L212 401L212 405L265 405L265 435L318 435L318 454L371 454L371 446L424 446L424 409L476 409L476 426L529 426L529 405L582 405L582 470L635 470L635 475L688 475L688 482L741 482L741 433L794 433L794 480L847 480L847 411L900 411L900 465L900 601L900 601L847 601L847 601L794 601L794 601L741 601L741 601L688 601L688 601L635 601L635 601L582 601L582 601L529 601L529 601L476 601L476 601L424 601L424 601L371 601L371 601L318 601L318 601L265 601L265 601L212 601L212 601L159 601L159 601L106 601L106 601L53 601L53 601L0 601Z" fill="#755a99"></path><path d="M0 512L53 512L53 516L106 516L106 513L159 513L159 491L212 491L212 461L265 461L265 489L318 489L318 512L371 512L371 506L424 506L424 455L476 455L476 469L529 469L529 478L582 478L582 468L635 468L635 458L688 458L688 515L741 515L741 460L794 460L794 488L847 488L847 481L900 481L900 477L900 601L900 601L847 601L847 601L794 601L794 601L741 601L741 601L688 601L688 601L635 601L635 601L582 601L582 601L529 601L529 601L476 601L476 601L424 601L424 601L371 601L371 601L318 601L318 601L265 601L265 601L212 601L212 601L159 601L159 601L106 601L106 601L53 601L53 601L0 601Z" fill="#655695"></path><path d="M0 557L53 557L53 540L106 540L106 560L159 560L159 543L212 543L212 560L265 560L265 536L318 536L318 582L371 582L371 550L424 550L424 520L476 520L476 521L529 521L529 553L582 553L582 582L635 582L635 551L688 551L688 571L741 571L741 560L794 560L794 536L847 536L847 511L900 511L900 526L900 601L900 601L847 601L847 601L794 601L794 601L741 601L741 601L688 601L688 601L635 601L635 601L582 601L582 601L529 601L529 601L476 601L476 601L424 601L424 601L371 601L371 601L318 601L318 601L265 601L265 601L212 601L212 601L159 601L159 601L106 601L106 601L53 601L53 601L0 601Z" fill="#545391"></path></svg>