<svg id="visual" viewBox="0 0 900 600" width="900" height="600" xmlns="http://www.w3.org/2000/svg" xmlns:xlink="http://www.w3.org/1999/xlink" version="1.1"><rect x="0" y="0" width="900" height="600" fill="#1B191B"></rect><path d="M0 187L82 187L82 197L164 197L164 223L245 223L245 242L327 242L327 190L409 190L409 160L491 160L491 151L573 151L573 194L655 194L655 235L736 235L736 202L818 202L818 143L900 143L900 150L900 601L900 601L818 601L818 601L736 601L736 601L655 601L655 601L573 601L573 601L491 601L491 601L409 601L409 601L327 601L327 601L245 601L245 601L164 601L164 601L82 601L82 601L0 601Z" fill="#d7759e"></path><path d="M0 157L82 157L82 190L164 190L164 215L245 215L245 279L327 279L327 180L409 180L409 235L491 235L491 282L573 282L573 284L655 284L655 143L736 143L736 215L818 215L818 225L900 225L900 283L900 601L900 601L818 601L818 601L736 601L736 601L655 601L655 601L573 601L573 601L491 601L491 601L409 601L409 601L327 601L327 601L245 601L245 601L164 601L164 601L82 601L82 601L0 601Z" fill="#cb709f"></path><path d="M0 246L82 246L82 301L164 301L164 219L245 219L245 257L327 257L327 283L409 283L409 208L491 208L491 208L573 208L573 294L655 294L655 240L736 240L736 244L818 244L818 220L900 220L900 257L900 601L900 601L818 601L818 601L736 601L736 601L655 601L655 601L573 601L573 601L491 601L491 601L409 601L409 601L327 601L327 601L245 601L245 601L164 601L164 601L82 601L82 601L0 601Z" fill="#be6c9f"></path><path d="M0 313L82 313L82 358L164 358L164 330L245 330L245 298L327 298L327 245L409 245L409 355L491 355L491 297L573 297L573 274L655 274L655 290L736 290L736 325L818 325L818 334L900 334L900 286L900 601L900 601L818 601L818 601L736 601L736 601L655 601L655 601L573 601L573 601L491 601L491 601L409 601L409 601L327 601L327 601L245 601L245 601L164 601L164 601L82 601L82 601L0 601Z" fill="#b0679f"></path><path d="M0 330L82 330L82 290L164 290L164 303L245 303L245 356L327 356L327 381L409 381L409 329L491 329L491 381L573 381L573 383L655 383L655 333L736 333L736 332L818 332L818 346L900 346L900 376L900 601L900 601L818 601L818 601L736 601L736 601L655 601L655 601L573 601L573 601L491 601L491 601L409 601L409 601L327 601L327 601L245 601L245 601L164 601L164 601L82 601L82 601L0 601Z" fill="#a2649f"></path><path d="M0 337L82 337L82 373L164 373L164 433L245 433L245 348L327 348L327 366L409 366L409 367L491 367L491 428L573 428L573 391L655 391L655 369L736 369L736 426L818 426L818 360L900 360L900 338L900 601L900 601L818 601L818 601L736 601L736 601L655 601L655 601L573 601L573 601L491 601L491 601L409 601L409 601L327 601L327 601L245 601L245 601L164 601L164 601L82 601L82 601L0 601Z" fill="#94609d"></path><path d="M0 412L82 412L82 385L164 385L164 434L245 434L245 425L327 425L327 391L409 391L409 406L491 406L491 378L573 378L573 419L655 419L655 419L736 419L736 418L818 418L818 379L900 379L900 381L900 601L900 601L818 601L818 601L736 601L736 601L655 601L655 601L573 601L573 601L491 601L491 601L409 601L409 601L327 601L327 601L245 601L245 601L164 601L164 601L82 601L82 601L0 601Z" fill="#855d9b"></path><path d="M0 456L82 456L82 439L164 439L164 436L245 436L245 509L327 509L327 493L409 493L409 480L491 480L491 486L573 486L573 507L655 507L655 459L736 459L736 485L818 485L818 475L900 475L900 508L900 601L900 601L818 601L818 601L736 601L736 601L655 601L655 601L573 601L573 601L491 601L491 601L409 601L409 601L327 601L327 601L245 601L245 601L164 601L164 601L82 601L82 601L0 601Z" fill="#755a99"></path><path d="M0 515L82 515L82 485L164 485L164 488L245 488L245 493L327 493L327 501L409 501L409 469L491 469L491 531L573 531L573 469L655 469L655 540L736 540L736 495L818 495L818 513L900 513L900 476L900 601L900 601L818 601L818 601L736 601L736 601L655 601L655 601L573 601L573 601L491 601L491 601L409 601L409 601L327 601L327 601L245 601L245 601L164 601L164 601L82 601L82 601L0 601Z" fill="#655695"></path><path d="M0 558L82 558L82 529L164 529L164 548L245 548L245 569L327 569L327 564L409 564L409 524L491 524L491 555L573 555L573 584L655 584L655 548L736 548L736 541L818 541L818 566L900 566L900 550L900 601L900 601L818 601L818 601L736 601L736 601L655 601L655 601L573 601L573 601L491 601L491 601L409 601L409 601L327 601L327 601L245 601L245 601L164 601L164 601L82 601L82 601L0 601Z" fill="#545391"></path></svg>