<svg id="visual" viewBox="0 0 900 600" width="900" height="600" xmlns="http://www.w3.org/2000/svg" xmlns:xlink="http://www.w3.org/1999/xlink" version="1.1"><path d="M0 55L30 62C60 69 120 83 180 85C240 87 300 77 360 66C420 55 480 43 540 41C600 39 660 47 720 55C780 63 840 71 870 75L900 79L900 0L870 0C840 0 780 0 720 0C660 0 600 0 540 0C480 0 420 0 360 0C300 0 240 0 180 0C120 0 60 0 30 0L0 0Z" fill="#1b191b"></path><path d="M0 109L30 111C60 113 120 117 180 115C240 113 300 105 360 98C420 91 480 85 540 82C600 79 660 79 720 88C780 97 840 115 870 124L900 133L900 77L870 73C840 69 780 61 720 53C660 45 600 37 540 39C480 41 420 53 360 64C300 75 240 85 180 83C120 81 60 67 30 60L0 53Z" fill="#4a2b58"></path><path d="M0 283L30 295C60 307 120 331 180 318C240 305 300 255 360 222C420 189 480 173 540 179C600 185 660 213 720 241C780 269 840 297 870 311L900 325L900 131L870 122C840 113 780 95 720 86C660 77 600 77 540 80C480 83 420 89 360 96C300 103 240 111 180 113C120 115 60 111 30 109L0 107Z" fill="#6b43a8"></path><path d="M0 325L30 335C60 345 120 365 180 354C240 343 300 301 360 270C420 239 480 219 540 227C600 235 660 271 720 298C780 325 840 343 870 352L900 361L900 323L870 309C840 295 780 267 720 239C660 211 600 183 540 177C480 171 420 187 360 220C300 253 240 303 180 316C120 329 60 305 30 293L0 281Z" fill="#715df2"></path><path d="M0 343L30 355C60 367 120 391 180 383C240 375 300 335 360 305C420 275 480 255 540 266C600 277 660 319 720 348C780 377 840 393 870 401L900 409L900 359L870 350C840 341 780 323 720 296C660 269 600 233 540 225C480 217 420 237 360 268C300 299 240 341 180 352C120 363 60 343 30 333L0 323Z" fill="#715df2"></path><path d="M0 403L30 413C60 423 120 443 180 430C240 417 300 371 360 343C420 315 480 305 540 319C600 333 660 371 720 399C780 427 840 445 870 454L900 463L900 407L870 399C840 391 780 375 720 346C660 317 600 275 540 264C480 253 420 273 360 303C300 333 240 373 180 381C120 389 60 365 30 353L0 341Z" fill="#6b43a8"></path><path d="M0 523L30 528C60 533 120 543 180 548C240 553 300 553 360 546C420 539 480 525 540 512C600 499 660 487 720 494C780 501 840 527 870 540L900 553L900 461L870 452C840 443 780 425 720 397C660 369 600 331 540 317C480 303 420 313 360 341C300 369 240 415 180 428C120 441 60 421 30 411L0 401Z" fill="#4a2b58"></path><path d="M0 601L30 601C60 601 120 601 180 601C240 601 300 601 360 601C420 601 480 601 540 601C600 601 660 601 720 601C780 601 840 601 870 601L900 601L900 551L870 538C840 525 780 499 720 492C660 485 600 497 540 510C480 523 420 537 360 544C300 551 240 551 180 546C120 541 60 531 30 526L0 521Z" fill="#1b191b"></path></svg>